<svg xmlns="http://www.w3.org/2000/svg"
	 viewBox="0 0 54.35 47.37">
	<defs>
		<style>.cls-1{fill:none;stroke:#FFFFFF ;stroke-miterlimit:10;stroke-width:15;}.cls-2{fill:#FFFFFF;}</style>
	</defs>
	<g id="Layer_2" data-name="Layer 2">
		<g id="Layer_1-2" data-name="Layer 1">
			<path class="cls-1" d="M10.94,45.66A24.67,24.67,0,0,1,.5,25.68C.5,11.77,12.44.5,27.18.5S53.85,11.77,53.85,25.68a24.45,24.45,0,0,1-7.77,17.77"/>
			<path class="cls-2" d="M21.22,35.17C17.56,25.41,8.17,17.34,8,6.39c0-.72,0,.6,0,.67,0,.85,0,1.71,0,2.56.17,11.28,9.47,19.27,13.24,29.3a6.91,6.91,0,0,1,0-1.87,5.92,5.92,0,0,0,0-1.88Z"/>
			<path class="cls-2" d="M31.8,37.34c2.95-5.29,7.84-9.18,10.53-14.67s3.15-11.4,2.88-17.45c0,.89-.06,2.48,0,3.61s.06-.92,0-1c.15.24-.08,1.15-.1,1.45-.07.64-.16,1.29-.27,1.93A27.9,27.9,0,0,1,44,14.82a28.28,28.28,0,0,1-3.34,7.1C37.93,26,34.19,29.3,31.8,33.59c-.22.39,0,1.44,0,1.88s.23,1.49,0,1.87Z"/>
			<path class="cls-2" d="M10.67,47.37a21.56,21.56,0,0,1,35.58-2.81c-.12-.16,0-1,0-1.25s.14-1.05,0-1.25a21.56,21.56,0,0,0-35.58,2.81c-.36.64.35,1.88,0,2.5Z"/>
			<path class="cls-2" d="M21.78,34.86c-2.75-4.44-6.23-8.37-9.13-12.72a33,33,0,0,1-3.53-6.61,19.22,19.22,0,0,1-1-3.49C8,11.37,8,10.71,7.93,10c0,2.31,0,2.94,0,1.88L8,11.24c0-.37.1-.73.16-1.1.21-1.21-.2-2.54,0-3.75A25.22,25.22,0,0,0,11,23.27c3.11,5.44,7.47,10,10.76,15.34-.19-.31,0-1.49,0-1.87s.22-1.49,0-1.88Z"/>
			<path class="cls-2" d="M30.42,37.05c4.45-4.69,8.92-9.64,11.74-15.53A29,29,0,0,0,44.34,4.7c.19,1.22-.19,2.53,0,3.75a17.2,17.2,0,0,0,.24,2.31s.11-3,0-1.67c0,.43-.07.86-.12,1.28A22,22,0,0,1,43.66,14a30.35,30.35,0,0,1-3.13,6.83A75.52,75.52,0,0,1,30.42,33.3c-.21.22,0,1.57,0,1.88s.23,1.65,0,1.87Z"/>
			<path class="cls-2" d="M23.73,34.05A54,54,0,0,0,21,27.64a27,27,0,0,1-1.22-3.13,14.34,14.34,0,0,1-.41-1.72,8.62,8.62,0,0,1-.11-.87q-.12-1.92,0,2.34c0-.2,0-.41.05-.61.12-1.24-.12-2.52,0-3.75a32.15,32.15,0,0,0,0,5.55,14.78,14.78,0,0,0,1,4.18c1.06,2.76,2.62,5.33,3.49,8.17a3.25,3.25,0,0,1,0-.55V35.93a7,7,0,0,0,0-1.88Z"/>
			<path class="cls-2" d="M22.72,34.47a59.82,59.82,0,0,1-3-6.1,21.94,21.94,0,0,1-1-3.19,15.25,15.25,0,0,1-.3-1.64c0-.29-.06-.59-.09-.88-.05-1.05-.05-.32,0,2.16l0-.49c.08-1.12-.07-2.74,0-3.62a26.07,26.07,0,0,0,.75,9.6,44.49,44.49,0,0,0,3.7,7.91,3.25,3.25,0,0,1,0-.55c0-.44,0-.88,0-1.32s0-.89,0-1.33a1.69,1.69,0,0,0,0-.55Z"/>
			<path class="cls-2" d="M30,37a39.36,39.36,0,0,0,4.73-7,12.15,12.15,0,0,0,1.13-4.13c.08-1,0-2.09,0-3.13a23.39,23.39,0,0,0-.1-2.65c.14,1.23-.14,2.51,0,3.75q0,.35.06.69.1-4.11,0-2.15c0,.33-.09.67-.15,1a12.64,12.64,0,0,1-.4,1.46,15.41,15.41,0,0,1-1.42,3A58.76,58.76,0,0,1,30,33.29a2.11,2.11,0,0,0,0,.55v2.65c0,.11.07.49,0,.55Z"/>
			<path class="cls-2" d="M27.07,37.21a18.81,18.81,0,0,1,2.6-4,31.81,31.81,0,0,0,2.65-3.36,8.59,8.59,0,0,0,1.5-3.69A27.25,27.25,0,0,0,33.88,23a13.55,13.55,0,0,0-.14-2.55,10.63,10.63,0,0,1,0,1.87,10.73,10.73,0,0,0,0,1.88c0,.13,0,.26.07.39.21,1.3.18-3.43,0-2.3,0,.25-.07.49-.13.74a8.27,8.27,0,0,1-.52,1.52,14.7,14.7,0,0,1-1.85,2.9c-.69.88-1.51,1.69-2.16,2.6a22.18,22.18,0,0,0-2.1,3.38,2.05,2.05,0,0,0,0,.55c0,.44,0,.88,0,1.32s0,.89,0,1.33a2,2,0,0,1,0,.55Z"/>
			<path class="cls-2" d="M25,33.69c-1.12-2.92-3.27-5.18-5.26-7.52A24.6,24.6,0,0,1,17,22.57a12.36,12.36,0,0,1-1-2.24,9.21,9.21,0,0,1-.36-1.27c0-.19-.06-.39-.1-.58-.07-.7-.08-.38,0,1s0,1.67,0,1c.09-1.12-.07-2.73,0-3.62-.09,1.34-.05,2.68,0,4a9.94,9.94,0,0,0,.36,2.71,14.89,14.89,0,0,0,2.75,5c2.25,2.89,5.06,5.41,6.4,8.91a3.17,3.17,0,0,1,0-.55V35.56a5.86,5.86,0,0,0,0-1.87Z"/>
			<path class="cls-2" d="M26.18,37.36a22.31,22.31,0,0,1,2.75-5.74A38,38,0,0,1,33.12,27c1.35-1.41,2.81-3.08,3.19-5.06a18.41,18.41,0,0,0,.1-3.56,5.68,5.68,0,0,0-.54-3,3.17,3.17,0,0,1,0,.55v2.65c0,.14-.05.43,0,.55a4.25,4.25,0,0,1,.53,1.73l0-.55c0-4.15,0-1.65-.77-.32A12.58,12.58,0,0,1,34.29,22c-1,1.21-2.14,2.27-3.24,3.38a20.68,20.68,0,0,0-4.87,8.26,7,7,0,0,0,0,1.88,6.9,6.9,0,0,1,0,1.87Z"/>
		</g>
	</g>
</svg>


