<svg xmlns="http://www.w3.org/2000/svg" viewBox="0 0 1740 1031"><defs><style>.cls-1{fill:#e6e6e6;}.cls-2{fill:#bfbfbf;}</style>
</defs><g id="Layer_2" data-name="Layer 2">
	<g id="Layer_1-2" data-name="Layer 1">
		<path class="cls-1" d="M1740,0V1031H1340.37a478.69,478.69,0,0,0,3.63-59c0-237.22-173.7-433.82-400.73-469.29A224.54,224.54,0,0,0,1094,290.5C1094,166.51,993.71,66,870,66S646,166.51,646,290.5A224.56,224.56,0,0,0,796.41,502.6C569.05,537.79,395,734.54,395,972a478.69,478.69,0,0,0,3.63,59H0V0Z"/><path class="cls-2" d="M1373,972a478.69,478.69,0,0,1-3.63,59H427.63A478.69,478.69,0,0,1,424,972c0-237.46,174-434.21,401.41-469.4A224.56,224.56,0,0,1,675,290.5C675,166.51,775.29,66,899,66s224,100.51,224,224.5A224.54,224.54,0,0,1,972.27,502.71C1199.3,538.18,1373,734.78,1373,972Z"/></g></g></svg>